<?xml version="1.0" encoding="UTF-8"?>
<!-- Generator: Adobe Illustrator 17.0.2, SVG Export Plug-In . SVG Version: 6.00 Build 0)  -->
<!DOCTYPE svg PUBLIC "-//W3C//DTD SVG 1.1//EN" "http://www.w3.org/Graphics/SVG/1.1/DTD/svg11.dtd">
<svg version="1.1" id="Layer_1" xmlns="http://www.w3.org/2000/svg" xmlns:xlink="http://www.w3.org/1999/xlink" x="0px" y="0px" width="190px" height="30px" viewBox="0 0 190 30" enable-background="new 0 0 190 30" xml:space="preserve">
<g>
	<polygon fill="#D4D8DB" points="3.689,8.703 14.281,8.703 3.345,21.943 3.345,24.352 18.517,24.352 18.517,21.466 7.581,21.466    18.517,8.226 18.517,5.817 3.689,5.817  "/>
	<path fill="#D4D8DB" d="M31.228,5.499c-5.693,0-9.718,4.369-9.718,9.585v0.053c0,5.216,3.972,9.532,9.665,9.532   c5.693,0,9.718-4.369,9.718-9.586v-0.053C40.893,9.815,36.921,5.499,31.228,5.499z M37.477,15.137c0,3.601-2.569,6.54-6.249,6.54   c-3.68,0-6.302-2.992-6.302-6.593v-0.053c0-3.601,2.568-6.54,6.249-6.54c3.681,0,6.302,2.992,6.302,6.593V15.137z"/>
	<polygon fill="#D4D8DB" points="81.354,18.633 71.424,5.817 68.406,5.817 68.406,24.352 71.61,24.352 71.61,11.165 81.831,24.352    84.558,24.352 84.558,5.817 81.354,5.817  "/>
	<rect x="89.246" y="5.817" fill="#D4D8DB" width="3.257" height="18.535"/>
	<polygon fill="#D4D8DB" points="105.583,20.063 99.996,5.817 96.395,5.817 104.1,24.485 106.96,24.485 114.666,5.817    111.144,5.817  "/>
	<polygon fill="#D4D8DB" points="121.63,16.461 130.924,16.461 130.924,13.549 121.63,13.549 121.63,8.73 132.116,8.73    132.116,5.817 118.373,5.817 118.373,24.352 132.248,24.352 132.248,21.439 121.63,21.439  "/>
	<path fill="#D4D8DB" d="M151.791,11.721v-0.053c0-1.615-0.556-2.992-1.535-3.998c-1.192-1.165-3.019-1.854-5.349-1.854h-8.262   v18.535h3.257v-6.461h4.025h0.053l4.554,6.461h3.84l-5.005-7.017C149.964,16.594,151.791,14.767,151.791,11.721z M139.902,15.005   V8.782h4.74c2.41,0,3.84,1.086,3.84,3.072v0.053c0,1.88-1.483,3.098-3.813,3.098H139.902z"/>
	<path fill="#D4D8DB" d="M163.469,13.602c-3.549-0.847-4.396-1.483-4.396-2.913v-0.053c0-1.218,1.112-2.198,3.018-2.198   c1.695,0,3.363,0.662,5.031,1.906l1.748-2.462c-1.88-1.509-4.025-2.33-6.725-2.33c-3.681,0-6.329,2.198-6.329,5.375v0.053   c0,3.416,2.224,4.581,6.17,5.534c3.442,0.794,4.184,1.509,4.184,2.833v0.053c0,1.403-1.271,2.33-3.283,2.33   c-2.304,0-4.078-0.874-5.852-2.41l-1.96,2.33c2.224,1.986,4.898,2.966,7.732,2.966c3.892,0,6.619-2.066,6.619-5.534V19.03   C169.426,15.958,167.387,14.555,163.469,13.602z"/>
	<polygon fill="#D4D8DB" points="176.656,21.439 176.656,16.461 185.95,16.461 185.95,13.549 176.656,13.549 176.656,8.73    187.142,8.73 187.142,5.817 173.399,5.817 173.399,24.352 187.274,24.352 187.274,21.439  "/>
	<path fill="#D4D8DB" d="M61.809,8.954c-1.714-2.103-4.359-3.455-7.544-3.455c-5.693,0-9.718,4.369-9.718,9.585v0.053   c0,2.048,0.615,3.956,1.703,5.52c-1.615,1.324-2.562,2.179-2.486,2.28c0.076,0.101,1.159-0.57,2.877-1.754   c1.713,2.122,4.369,3.486,7.57,3.486c5.693,0,9.718-4.369,9.718-9.586v-0.053c0-2.062-0.623-3.982-1.725-5.551   c1.629-1.334,2.584-2.197,2.508-2.298C64.637,7.08,63.543,7.759,61.809,8.954z M47.963,15.084v-0.053   c0-3.601,2.568-6.54,6.249-6.54c2.05,0,3.77,0.929,4.893,2.373c-1.115,0.803-2.347,1.704-3.65,2.673   c-0.331-0.282-0.755-0.451-1.216-0.451c-1.062,0-1.923,0.895-1.923,1.998c0,0.253,0.047,0.494,0.129,0.716   c-1.289,0.98-2.494,1.911-3.573,2.759C48.29,17.546,47.963,16.353,47.963,15.084z M60.515,15.084v0.053   c0,3.601-2.569,6.54-6.249,6.54c-2.065,0-3.796-0.942-4.918-2.404c1.114-0.801,2.343-1.701,3.645-2.669   c0.336,0.298,0.771,0.479,1.247,0.479c1.062,0,1.923-0.895,1.923-1.999c0-0.268-0.051-0.522-0.143-0.756   c1.286-0.978,2.489-1.907,3.567-2.753C60.18,12.596,60.515,13.801,60.515,15.084z"/>
</g>
</svg>