<?xml version="1.0" standalone="no"?>
<!DOCTYPE svg PUBLIC "-//W3C//DTD SVG 20010904//EN"
 "http://www.w3.org/TR/2001/REC-SVG-20010904/DTD/svg10.dtd">
<svg version="1.0" xmlns="http://www.w3.org/2000/svg"
 width="312.000000pt" height="312.000000pt" viewBox="0 0 312.000000 312.000000"
 preserveAspectRatio="xMidYMid meet">
<metadata>
Created by potrace 1.11, written by Peter Selinger 2001-2013
</metadata>
<g transform="translate(0.000000,312.000000) scale(0.100000,-0.100000)"
fill="#000000" stroke="none">
<path d="M2090 3064 c0 -3 4 -13 10 -23 8 -17 5 -18 -35 -13 -52 5 -65 -10
-45 -58 14 -33 13 -46 -2 -42 -15 4 -38 -18 -38 -36 0 -8 -7 -23 -15 -32 -14
-16 -13 -17 12 -15 16 1 39 3 53 4 18 1 21 4 11 10 -8 5 -10 14 -6 21 6 9 4
11 -5 5 -8 -5 -11 -3 -8 6 3 8 11 13 17 12 6 -2 11 3 11 10 1 6 7 1 15 -13 8
-14 14 -20 15 -15 0 6 -14 30 -30 55 -38 57 -39 80 -4 80 14 0 34 -5 45 -10
30 -17 41 -3 24 31 -14 27 -25 37 -25 23z m-82 -174 c0 -16 -4 -32 -9 -35 -10
-7 -13 48 -2 58 10 10 10 10 11 -23z"/>
<path d="M1877 2950 c-15 -16 -26 -31 -25 -32 1 -2 -4 -19 -11 -38 -15 -39
-21 -149 -9 -156 4 -3 8 10 8 28 0 42 13 63 34 55 22 -9 20 -39 -6 -73 -16
-20 -17 -25 -5 -15 26 21 48 67 41 85 -6 16 -17 20 -41 17 -18 -3 -16 9 5 26
9 8 12 12 6 9 -7 -3 -14 1 -18 9 -3 8 0 14 6 12 6 -1 22 16 34 38 39 67 28 88
-19 35z m18 -17 c-18 -43 -35 -64 -35 -44 0 14 38 81 46 81 2 0 -3 -17 -11
-37z"/>
<path d="M1646 2875 c-21 -16 -37 -115 -18 -115 15 0 24 31 12 45 -15 18 -1
45 24 46 20 0 20 1 1 9 -21 8 -21 8 25 23 10 4 9 6 -5 6 -11 0 -29 -6 -39 -14z"/>
<path d="M1898 2865 c-4 -6 -4 -16 0 -21 10 -16 42 -13 42 4 0 11 -3 12 -14 3
-11 -10 -15 -8 -18 6 -2 10 -6 14 -10 8z"/>
<path d="M1798 2844 c-8 -7 -47 -15 -90 -16 -15 -1 -24 -6 -21 -10 3 -5 -3 -8
-13 -6 -15 2 -18 -2 -16 -21 4 -28 -33 -71 -61 -71 -17 0 -19 6 -15 55 6 73
-9 71 -18 -2 l-6 -58 -67 -3 c-100 -4 -236 -29 -330 -62 -47 -16 -88 -27 -93
-24 -4 3 -8 1 -8 -5 0 -11 -56 -41 -78 -41 -12 0 -12 4 4 21 20 22 46 109 33
109 -4 0 -11 -17 -14 -37 -10 -62 -17 -68 -74 -66 -30 1 -49 -2 -46 -8 4 -5
21 -9 40 -9 18 0 35 -5 37 -12 6 -16 -119 -98 -138 -91 -10 4 -17 -2 -21 -16
-3 -11 -12 -21 -20 -21 -10 0 -12 8 -8 33 6 31 5 33 -21 32 -15 0 -29 -6 -31
-15 -4 -12 -3 -13 5 -1 5 7 15 10 21 7 14 -9 14 -53 0 -62 -8 -5 -7 -9 1 -14
9 -6 -8 -32 -60 -88 -41 -45 -78 -78 -83 -75 -6 3 -7 1 -3 -5 4 -7 0 -22 -9
-34 -16 -23 -17 -22 -10 12 4 19 12 41 18 48 5 7 7 15 4 19 -8 7 -37 -58 -37
-82 0 -8 -4 -15 -10 -15 -5 0 -10 -11 -10 -24 0 -14 -18 -61 -40 -104 -92
-185 -125 -344 -117 -572 6 -156 18 -226 65 -360 22 -63 85 -192 115 -233 16
-24 17 -31 6 -41 -8 -7 -54 -47 -104 -88 -113 -95 -189 -168 -182 -175 3 -3
30 8 59 24 29 17 73 41 98 54 25 13 47 27 48 32 2 4 9 7 16 7 13 0 99 59 104
72 7 14 39 -7 108 -71 121 -113 198 -166 324 -223 36 -16 73 -34 82 -39 10 -5
25 -9 33 -9 8 0 15 -5 15 -11 0 -5 4 -7 10 -4 5 3 38 -1 72 -10 35 -9 79 -20
98 -25 62 -15 306 -16 382 -1 29 5 69 12 89 15 41 6 60 12 107 33 18 8 42 16
53 18 12 2 26 8 33 13 6 5 24 12 41 16 16 4 32 11 35 15 3 4 38 25 78 46 39
20 72 41 72 46 0 5 6 9 13 9 7 0 24 11 39 25 l27 25 7 -23 c5 -12 7 -25 6 -30
-1 -4 3 -7 10 -7 6 0 9 -3 5 -6 -3 -4 0 -19 8 -34 8 -15 11 -30 8 -34 -4 -3
-1 -6 6 -6 7 0 9 -5 6 -10 -4 -6 -10 -8 -14 -6 -4 3 -13 0 -21 -6 -11 -7 -6
-8 19 -4 19 4 36 8 38 10 6 6 -19 56 -28 56 -4 0 -4 13 1 29 6 23 5 29 -5 25
-7 -3 -16 -1 -20 5 -11 19 25 24 44 7 10 -9 25 -16 34 -16 10 0 17 -7 16 -17
0 -10 -3 -13 -5 -7 -6 15 -41 6 -48 -13 -4 -9 -2 -11 6 -7 8 5 9 2 4 -11 -5
-14 -4 -16 7 -6 11 8 18 6 32 -9 10 -11 15 -20 10 -20 -4 0 -2 -6 4 -14 9 -11
3 -15 -31 -21 -24 -4 -58 -7 -77 -6 l-34 0 20 -20 c18 -18 23 -19 42 -7 19 12
24 10 46 -16 17 -20 31 -27 45 -23 15 4 25 -2 36 -19 10 -14 26 -24 39 -24 31
0 56 -10 50 -20 -3 -4 4 -10 14 -13 21 -5 37 28 19 40 -7 4 -8 1 -3 -7 5 -8 4
-11 -3 -6 -6 4 -14 22 -18 41 -3 20 -10 38 -15 41 -5 3 -9 12 -9 20 0 11 6 13
19 9 16 -5 19 -2 15 17 -2 13 -2 18 2 11 3 -7 12 -9 20 -6 18 7 18 -4 -1 -24
-9 -8 -22 -12 -30 -9 -8 3 -15 1 -15 -3 0 -5 7 -11 15 -15 8 -3 15 -14 15 -24
0 -21 23 -46 33 -36 3 3 10 -3 16 -14 6 -11 8 -22 4 -25 -13 -14 27 -18 49 -6
13 7 26 13 30 14 4 0 14 9 23 20 9 11 14 14 10 8 -4 -8 0 -13 10 -13 10 0 14
-5 10 -12 -4 -7 2 -2 13 12 11 13 18 29 14 35 -3 5 1 4 10 -2 12 -11 19 -9 37
6 13 11 20 25 16 30 -3 6 1 11 9 11 12 0 14 5 6 25 -7 18 -6 23 4 19 16 -6 26
36 26 108 0 85 -74 166 -156 171 -22 1 -39 -3 -41 -10 -3 -8 3 -11 17 -8 11 2
18 0 15 -5 -3 -5 -1 -11 4 -14 5 -3 9 -22 9 -41 0 -20 6 -43 13 -53 8 -10 4
-9 -9 4 -13 11 -24 34 -25 51 -1 17 -5 29 -9 26 -5 -2 -8 1 -8 6 0 6 -5 11
-11 11 -8 0 -8 -4 0 -14 9 -11 9 -16 0 -22 -8 -5 -9 -3 -4 6 6 10 4 12 -9 7
-13 -5 -17 -2 -15 11 1 9 1 24 0 32 -1 13 -3 13 -10 0 -6 -8 -7 -18 -4 -24 3
-5 1 -6 -6 -2 -6 4 -9 12 -6 17 6 8 -16 14 -38 10 -5 -1 -6 3 -2 9 8 12 -37 5
-72 -12 -26 -13 -20 -32 8 -23 23 8 38 -21 20 -38 -10 -9 -12 -9 -9 3 4 19
-24 20 -30 1 -3 -9 0 -11 8 -6 9 6 11 4 5 -5 -6 -10 -1 -12 19 -8 l27 5 -22
-23 -22 -23 29 2 c34 2 64 45 42 58 -10 7 -10 11 2 21 8 7 11 9 7 4 -3 -5 0
-14 9 -21 15 -10 15 -13 0 -27 -20 -21 -21 -35 -1 -18 12 10 19 9 38 -3 15
-10 29 -12 39 -6 13 7 15 5 11 -11 -3 -11 -10 -20 -17 -20 -6 -1 3 -7 19 -15
25 -13 26 -14 5 -9 -14 3 -31 13 -37 22 -16 20 -17 8 -2 -21 l12 -22 -20 20
c-11 11 -19 23 -16 27 2 4 -4 5 -13 1 -10 -4 -15 -2 -11 3 4 6 -6 9 -24 6 -31
-5 -40 -22 -11 -22 14 0 14 -2 3 -9 -16 -11 -43 -3 -36 10 3 4 -4 13 -15 19
-17 9 -19 14 -9 26 11 13 3 19 -23 15 -3 0 -5 13 -3 30 4 25 2 29 -9 19 -11
-8 -16 -8 -22 1 -5 9 -10 5 -16 -11 -5 -12 -11 -20 -14 -17 -3 3 -1 14 5 26 8
13 8 22 1 26 -6 4 -8 11 -4 16 3 6 12 2 21 -10 16 -24 35 -28 27 -6 -4 10 0
15 12 16 18 0 17 1 -1 9 -11 5 -16 9 -11 9 5 1 3 8 -4 16 -16 20 4 20 24 0 16
-17 42 -20 50 -6 3 5 0 8 -7 7 -6 0 -13 3 -14 8 -1 5 -7 12 -13 16 -8 5 -10
18 -6 36 4 15 10 24 14 18 4 -5 15 -10 25 -10 13 -2 15 1 7 11 -8 10 -3 13 25
13 27 0 35 -4 35 -18 0 -11 -4 -22 -10 -25 -5 -3 -10 -15 -10 -25 0 -10 -6
-21 -12 -23 -8 -4 -7 -6 4 -6 9 -1 18 -6 20 -12 2 -7 10 -4 18 7 9 11 10 15 3
10 -7 -4 -13 -3 -13 2 0 15 38 87 43 82 3 -3 9 -1 14 4 5 5 3 6 -4 2 -8 -4
-13 -1 -13 7 0 12 -11 14 -51 11 -28 -2 -56 -7 -62 -11 -6 -4 -24 -8 -39 -10
-35 -4 -36 14 -4 52 14 16 23 32 20 37 -3 4 0 8 5 8 6 0 11 4 11 10 0 5 11 33
24 62 13 29 38 96 54 148 97 302 55 683 -104 946 -33 55 -35 61 -22 84 8 14
20 24 26 23 6 -2 14 6 17 17 4 11 10 18 15 15 5 -3 11 3 14 12 4 10 22 29 41
43 66 47 162 146 152 156 -8 8 -106 -48 -236 -135 l-103 -69 -77 77 c-111 111
-247 197 -423 269 -21 9 -28 19 -28 39 -1 24 -3 26 -13 13 -7 -9 -26 -15 -47
-14 -19 1 -47 2 -62 3 -15 0 -33 8 -41 16 -12 11 -16 12 -20 2 -10 -27 -15 1
-8 40 5 25 18 50 31 61 13 10 21 24 19 31 -3 7 -8 9 -11 5z m2 -18 c0 -3 -4
-8 -10 -11 -5 -3 -10 -1 -10 4 0 6 5 11 10 11 6 0 10 -2 10 -4z m-48 -47 c-6
-74 -6 -74 -67 -71 -30 2 -55 6 -55 9 0 4 19 29 60 80 6 7 17 10 25 7 8 -4 15
-1 15 6 0 6 6 10 13 7 7 -2 11 -18 9 -38z m-140 -444 c5 -6 8 -6 8 1 0 12 70
10 100 -2 8 -4 29 -8 45 -10 30 -4 195 -79 205 -93 3 -4 26 -21 51 -38 45 -31
119 -106 119 -121 0 -5 -30 -30 -67 -57 -38 -27 -134 -98 -214 -157 l-147
-108 -57 26 c-48 22 -67 26 -117 21 -33 -3 -73 -1 -89 3 -32 9 -40 4 -10 -8
16 -6 11 -14 -36 -58 -29 -27 -55 -49 -56 -48 -4 4 -8 -49 -11 -135 l-2 -84
-212 -163 -212 -163 -24 47 c-77 155 -103 343 -71 525 16 91 62 230 74 222 4
-2 8 1 8 8 0 28 61 116 123 177 60 59 167 140 185 140 4 0 18 9 32 20 14 11
30 17 35 14 5 -3 14 -1 21 4 22 17 67 24 67 10 1 -9 5 -7 13 4 12 16 33 21 70
19 15 -1 17 -7 13 -38 -3 -21 -3 -29 1 -18 11 40 35 64 66 67 54 6 82 4 89 -7z
m634 -430 c49 -112 68 -210 68 -350 0 -103 -5 -147 -23 -215 -75 -282 -268
-480 -536 -551 -102 -27 -270 -30 -367 -6 -134 33 -272 112 -368 212 l-45 46
30 25 c17 13 42 36 57 49 15 14 29 25 32 25 14 0 184 124 204 149 6 8 12 12
12 8 0 -5 6 -3 13 2 85 71 86 71 137 40 19 -12 52 -23 74 -25 21 -2 41 -6 44
-9 3 -3 10 -1 16 4 6 5 28 14 50 21 21 7 53 28 72 48 55 58 69 97 70 191 0 89
-3 81 59 129 6 4 24 16 40 26 17 10 37 26 46 35 9 9 27 23 39 31 13 8 37 27
53 43 17 15 33 27 36 27 3 0 20 14 38 30 18 17 36 30 41 30 5 0 17 9 27 20 32
35 54 25 81 -35z m288 -1121 c8 -21 -9 -25 -21 -5 -9 14 -8 18 3 18 7 0 15 -6
18 -13z m-87 -71 c-4 -3 -2 -13 5 -20 9 -11 9 -16 -2 -23 -7 -4 -10 -14 -7
-22 3 -8 -1 -15 -8 -15 -7 0 -12 7 -10 16 1 9 -3 20 -9 24 -7 6 -4 7 6 3 10
-3 20 -1 23 4 4 6 -1 10 -11 10 -13 0 -14 3 -4 15 7 8 15 15 18 15 3 0 2 -3
-1 -7z m53 -38 c0 -8 -2 -15 -4 -15 -2 0 -6 7 -10 15 -3 8 -1 15 4 15 6 0 10
-7 10 -15z m224 -1 c5 -14 4 -15 -9 -4 -17 14 -19 20 -6 20 5 0 12 -7 15 -16z
m-186 -15 c12 -19 11 -24 -4 -38 -16 -14 -16 -14 -6 0 12 16 7 29 -10 29 -5 0
-6 -5 -2 -12 4 -6 3 -8 -4 -5 -10 7 -5 47 7 47 3 0 12 -10 19 -21z m332 -9 c0
-5 -2 -10 -4 -10 -3 0 -8 5 -11 10 -3 6 -1 10 4 10 6 0 11 -4 11 -10z m-252
-53 c12 -1 22 -5 22 -9 0 -4 5 -8 11 -8 5 0 7 5 4 10 -3 6 1 10 10 10 10 0 13
-5 9 -12 -6 -10 -4 -10 8 0 13 11 16 9 20 -13 4 -20 3 -23 -8 -14 -17 14 -30
-12 -20 -38 6 -14 8 -14 22 3 14 18 15 18 9 -6 -5 -22 -5 -23 8 -8 9 11 18 14
28 7 11 -7 11 -9 -3 -9 -10 0 -18 -4 -18 -10 0 -5 5 -10 10 -10 7 0 7 -6 1
-19 -9 -16 -7 -19 13 -17 20 1 22 4 13 16 -6 8 -2 6 11 -4 30 -26 28 -31 -15
-34 -21 -1 -57 -4 -80 -8 -34 -5 -41 -3 -39 10 1 8 6 19 11 23 4 4 5 3 2 -3
-4 -7 3 -14 15 -17 27 -8 38 1 18 13 -9 6 -10 10 -3 10 6 0 15 -4 18 -10 11
-17 21 -11 23 15 1 14 -3 25 -9 25 -5 0 -7 -4 -4 -10 3 -6 -1 -7 -9 -4 -9 3
-13 11 -9 17 4 7 0 8 -13 3 -10 -4 -15 -4 -11 0 8 9 -43 45 -54 38 -4 -2 -32
-6 -63 -9 -51 -4 -56 -2 -56 16 0 13 -4 18 -12 13 -7 -5 -8 -3 -4 5 6 9 12 8
26 -4 15 -14 22 -14 40 -5 15 8 20 8 16 1 -11 -18 5 -13 21 7 14 16 14 16 9
-2 -5 -15 -2 -17 16 -13 12 4 28 2 34 -4 9 -7 16 -5 24 10 8 16 8 21 -2 22
-14 1 -40 5 -73 12 -14 2 -21 13 -23 33 l-3 29 19 -23 c10 -13 28 -24 40 -25z
m236 34 c3 -5 -1 -11 -9 -15 -8 -3 -17 0 -21 6 -4 7 -3 8 4 4 7 -4 12 -2 12 3
0 13 7 14 14 2z m-350 -30 c2 -3 -7 -11 -20 -18 -13 -6 -24 -7 -24 -2 0 5 5 9
11 9 8 0 8 4 0 14 -10 12 -8 13 9 9 11 -3 22 -8 24 -12z m280 -47 c17 -37 16
-51 -3 -39 -6 3 -8 11 -5 17 5 7 2 9 -7 6 -10 -4 -14 3 -15 23 -2 39 9 36 30
-7z m136 22 c-7 -7 -13 -7 -20 0 -6 6 -3 10 10 10 13 0 16 -4 10 -10z m-176
-12 c3 -8 2 -12 -4 -9 -6 3 -10 10 -10 16 0 14 7 11 14 -7z m101 -24 c3 -5 1
-10 -4 -10 -6 0 -11 5 -11 10 0 6 2 10 4 10 3 0 8 -4 11 -10z m-20 -20 c3 -5
1 -10 -4 -10 -6 0 -11 5 -11 10 0 6 2 10 4 10 3 0 8 -4 11 -10z m-301 -31 c-4
-8 1 -9 17 -4 22 7 22 7 6 -9 -17 -18 -14 -41 4 -30 11 6 39 -13 39 -27 0 -19
-49 -9 -55 11 -4 14 -15 20 -36 20 -16 0 -29 5 -29 10 0 6 5 10 11 10 5 0 7 5
3 12 -4 6 -3 8 2 5 6 -3 16 -2 24 4 20 12 23 11 14 -2z m-70 -15 c5 -14 4 -15
-9 -4 -17 14 -19 20 -6 20 5 0 12 -7 15 -16z m314 -79 c-6 -13 -15 -22 -20
-19 -5 3 -16 0 -25 -8 -14 -11 -16 -11 -9 2 4 8 0 6 -8 -4 -9 -11 -16 -17 -16
-14 0 4 -3 14 -7 24 -4 12 -3 15 5 10 8 -5 10 -2 5 9 -5 14 0 16 31 12 20 -3
36 -1 36 4 0 5 4 9 10 9 6 0 5 -10 -2 -25z"/>
<path d="M1699 2752 c-3 -20 -2 -29 4 -23 5 5 7 19 5 32 -3 20 -5 19 -9 -9z"/>
<path d="M1253 2283 c-20 -8 -15 -41 7 -48 11 -4 18 -10 15 -15 -3 -5 -1 -20
5 -34 11 -31 -5 -36 -26 -8 -12 16 -13 15 -14 -5 0 -27 14 -37 37 -25 21 11
43 5 43 -11 0 -6 -15 -27 -32 -47 -21 -23 -17 -20 12 8 l45 43 -27 22 c-17 14
-28 32 -28 47 0 14 4 20 8 14 4 -7 16 0 32 20 17 22 19 27 5 15 -40 -31 -103
-17 -75 16 13 16 12 16 -7 8z"/>
<path d="M1461 2214 c0 -11 3 -14 6 -6 3 7 2 16 -1 19 -3 4 -6 -2 -5 -13z"/>
<path d="M1179 2203 c-13 -16 -12 -17 4 -4 9 7 17 15 17 17 0 8 -8 3 -21 -13z"/>
<path d="M1186 2148 c7 -30 -12 -40 -22 -13 -4 8 -12 15 -20 15 -10 0 -8 -6 7
-21 11 -11 27 -18 34 -15 28 10 27 -29 -2 -51 -55 -44 -64 -54 -61 -71 2 -9
12 -18 23 -20 20 -4 20 -4 0 11 -20 15 -20 16 5 26 21 8 22 10 5 10 -17 1 -15
4 10 19 59 36 66 64 28 117 -13 19 -14 18 -7 -7z"/>
<path d="M1100 2125 c-7 -9 -11 -17 -9 -20 3 -2 10 5 17 15 14 24 10 26 -8 5z"/>
<path d="M1240 2075 c-7 -9 -10 -18 -7 -21 3 -3 10 4 17 15 13 25 8 27 -10 6z"/>
<path d="M1380 2065 c-7 -8 -22 -15 -34 -15 -16 0 -18 -2 -7 -9 18 -11 61 7
61 26 0 17 -5 17 -20 -2z"/>
<path d="M1473 2053 c9 -2 23 -2 30 0 6 3 -1 5 -18 5 -16 0 -22 -2 -12 -5z"/>
<path d="M1530 2050 c8 -5 22 -9 30 -9 10 0 8 3 -5 9 -27 12 -43 12 -25 0z"/>
<path d="M1585 2039 c4 -6 9 -8 12 -5 9 8 63 -23 63 -36 0 -6 -10 -23 -22 -37
l-23 -26 28 24 c37 34 35 59 -8 77 -41 17 -59 18 -50 3z"/>
<path d="M1255 2030 c3 -5 15 -10 26 -10 11 0 17 5 14 10 -3 6 -15 10 -26 10
-11 0 -17 -4 -14 -10z"/>
<path d="M1318 2023 c7 -3 16 -2 19 1 4 3 -2 6 -13 5 -11 0 -14 -3 -6 -6z"/>
<path d="M1569 1922 c-14 -6 -14 -9 -4 -19 10 -9 14 -8 18 8 3 10 4 19 4 18
-1 0 -9 -3 -18 -7z"/>
<path d="M1525 1860 c-22 -10 -36 -19 -32 -19 12 -1 77 27 77 33 0 7 3 8 -45
-14z"/>
<path d="M1371 1809 c-18 -6 -32 -12 -30 -13 8 -7 69 7 69 15 0 5 -1 9 -2 8
-2 0 -18 -5 -37 -10z"/>
<path d="M1265 1790 c3 -5 10 -10 16 -10 5 0 9 5 9 10 0 6 -7 10 -16 10 -8 0
-12 -4 -9 -10z"/>
<path d="M1130 1780 c0 -5 5 -10 11 -10 5 0 7 5 4 10 -3 6 -8 10 -11 10 -2 0
-4 -4 -4 -10z"/>
<path d="M1050 1760 c-11 -8 -7 -9 15 -4 37 8 45 14 19 14 -10 0 -26 -5 -34
-10z"/>
<path d="M1088 1743 c7 -3 16 -2 19 1 4 3 -2 6 -13 5 -11 0 -14 -3 -6 -6z"/>
<path d="M1194 1619 c-3 -5 9 -9 25 -9 17 0 31 2 31 4 0 8 -51 13 -56 5z"/>
<path d="M2500 470 c0 -5 5 -10 11 -10 5 0 7 5 4 10 -3 6 -8 10 -11 10 -2 0
-4 -4 -4 -10z"/>
<path d="M1371 2810 c-9 -5 -7 -9 8 -13 25 -6 27 -20 5 -41 -8 -9 -11 -16 -5
-16 5 0 13 5 17 11 4 8 9 7 15 -2 6 -11 15 -8 40 10 21 16 34 20 37 13 5 -17
20 -15 44 8 12 11 17 20 11 20 -7 0 -19 -7 -27 -16 -13 -12 -16 -12 -16 -2 0
10 -10 13 -35 10 -19 -2 -37 -8 -40 -12 -3 -5 5 -6 17 -3 18 5 21 3 11 -7 -16
-17 -43 -5 -43 19 0 21 -21 33 -39 21z"/>
<path d="M1211 2788 c-9 -26 -5 -45 15 -73 13 -17 16 -18 24 -5 12 19 13 33 1
25 -6 -3 -15 4 -22 17 -9 16 -9 23 0 26 14 5 15 32 1 32 -6 0 -14 -10 -19 -22z"/>
<path d="M1311 2773 c-8 -15 -12 -16 -22 -5 -17 16 -29 15 -29 -3 0 -8 5 -15
10 -15 6 0 10 -9 10 -19 0 -15 5 -18 22 -13 12 3 17 7 10 10 -9 3 -8 11 3 33
16 31 13 41 -4 12z"/>
<path d="M820 2760 c7 -14 10 -45 7 -81 -6 -62 2 -75 21 -35 12 27 52 42 52
19 0 -8 4 -12 10 -8 17 11 -2 34 -27 32 -14 -1 -28 4 -31 12 -3 8 0 11 7 7 6
-4 11 -1 11 8 0 9 -6 13 -14 10 -10 -4 -16 3 -18 22 -2 15 -9 29 -16 32 -11 3
-12 0 -2 -18z"/>
<path d="M1081 2759 c-1 -15 -4 -41 -7 -58 -4 -20 -3 -31 5 -31 6 0 11 6 11
14 0 8 12 19 28 24 24 9 25 11 5 11 -16 1 -25 10 -32 34 -9 30 -9 30 -10 6z"/>
<path d="M735 2760 c-3 -5 -2 -10 4 -10 5 0 13 5 16 10 3 6 2 10 -4 10 -5 0
-13 -4 -16 -10z"/>
<path d="M1029 2733 c-13 -17 -13 -17 5 -3 18 14 19 13 13 -3 -4 -11 -3 -16 3
-12 12 8 13 35 1 35 -5 0 -15 -8 -22 -17z"/>
<path d="M1338 2733 c7 -3 16 -2 19 1 4 3 -2 6 -13 5 -11 0 -14 -3 -6 -6z"/>
<path d="M1982 2706 c-20 -34 -21 -36 -2 -36 10 0 25 7 34 15 17 17 36 20 36
5 0 -5 7 -10 15 -10 8 0 15 5 15 10 0 6 10 15 23 20 22 9 22 9 0 9 -12 1 -24
-5 -26 -11 -4 -10 -8 -10 -15 1 -5 7 -16 11 -23 9 -8 -3 -19 2 -25 10 -9 12
-14 8 -32 -22z"/>
<path d="M771 2714 c0 -11 3 -14 6 -6 3 7 2 16 -1 19 -3 4 -6 -2 -5 -13z"/>
<path d="M2148 2723 c7 -3 16 -2 19 1 4 3 -2 6 -13 5 -11 0 -14 -3 -6 -6z"/>
<path d="M970 2700 c-8 -5 -17 -7 -21 -4 -19 11 -19 -20 0 -37 12 -11 19 -24
16 -30 -4 -5 -1 -9 4 -9 6 0 11 15 11 34 0 19 5 36 12 38 7 3 8 7 2 11 -5 3
-16 2 -24 -3z m0 -20 c0 -5 -5 -10 -11 -10 -5 0 -7 5 -4 10 3 6 8 10 11 10 2
0 4 -4 4 -10z"/>
<path d="M278 2690 c-9 -6 -62 -15 -117 -20 -55 -5 -115 -16 -133 -25 l-33
-15 30 5 c17 4 68 9 115 12 l85 5 -40 -32 c-47 -38 -50 -40 -43 -40 3 0 25 16
49 35 43 34 91 46 104 25 9 -15 35 -12 35 4 0 8 -9 21 -21 29 -15 11 -17 16
-7 20 7 3 9 6 3 6 -5 0 -18 -4 -27 -9z"/>
<path d="M592 2691 c-9 -5 -4 -8 16 -7 17 1 28 4 25 9 -6 9 -25 9 -41 -2z"/>
<path d="M564 2653 c-3 -10 -10 -29 -15 -42 -10 -25 -3 -61 12 -61 5 0 9 7 7
16 -2 10 3 19 10 21 24 9 14 -59 -14 -88 -30 -32 -25 -49 16 -49 28 0 70 38
70 64 0 6 -9 -4 -20 -21 -14 -23 -27 -33 -45 -33 -32 0 -33 23 0 48 20 16 23
25 18 56 -4 27 -2 36 8 36 12 0 12 2 0 9 -16 11 -6 31 16 31 10 0 13 -6 9 -16
-3 -8 -2 -12 4 -9 6 3 10 13 10 21 0 21 -38 17 -52 -6 -19 -30 -31 -24 -24 10
6 32 -1 41 -10 13z"/>
<path d="M677 2654 c-14 -15 -6 -34 14 -34 14 0 19 5 17 17 -3 18 -20 27 -31
17z m23 -14 c0 -5 -4 -10 -10 -10 -5 0 -10 5 -10 10 0 6 5 10 10 10 6 0 10 -4
10 -10z"/>
<path d="M650 2600 c0 -17 22 -22 36 -9 11 12 9 14 -11 15 -14 1 -25 -2 -25
-6z"/>
<path d="M427 2582 c-22 -24 -21 -42 2 -42 24 0 45 25 37 45 -7 20 -19 19 -39
-3z m30 -17 c-7 -16 -37 -21 -37 -5 0 10 32 31 39 25 2 -2 1 -11 -2 -20z"/>
<path d="M652 2550 c0 -14 2 -19 5 -12 2 6 2 18 0 25 -3 6 -5 1 -5 -13z"/>
<path d="M117 2553 c-15 -14 -6 -44 16 -52 30 -12 33 -7 7 19 -11 11 -18 25
-15 30 7 11 2 13 -8 3z"/>
<path d="M228 2503 c6 -2 18 -2 25 0 6 3 1 5 -13 5 -14 0 -19 -2 -12 -5z"/>
<path d="M705 2450 c-8 -38 8 -62 28 -41 10 11 9 12 -2 6 -11 -6 -13 -2 -9 18
8 39 -9 56 -17 17z"/>
<path d="M419 2408 c25 -10 37 -22 46 -48 10 -31 12 -32 17 -12 8 31 -19 61
-62 67 l-35 6 34 -13z"/>
<path d="M622 2408 c-15 -15 -15 -28 -1 -28 5 0 8 4 4 9 -3 5 -1 12 5 16 5 3
10 1 10 -4 0 -17 26 -13 41 7 13 15 12 16 -3 3 -12 -9 -18 -10 -18 -2 0 15
-23 14 -38 -1z"/>
<path d="M515 2390 c18 -20 59 -27 69 -11 3 4 -7 6 -22 3 -25 -5 -26 -4 -12
14 14 17 14 18 -2 6 -11 -9 -18 -10 -23 -2 -3 5 -11 10 -17 10 -6 0 -3 -9 7
-20z"/>
<path d="M91 2254 c0 -11 3 -14 6 -6 3 7 2 16 -1 19 -3 4 -6 -2 -5 -13z"/>
<path d="M100 2211 c0 -6 4 -13 10 -16 6 -3 7 1 4 9 -7 18 -14 21 -14 7z"/>
<path d="M2745 880 c-3 -5 3 -10 15 -10 12 0 18 5 15 10 -3 6 -10 10 -15 10
-5 0 -12 -4 -15 -10z"/>
<path d="M2600 851 c0 -3 12 -11 26 -18 22 -10 25 -9 22 4 -3 15 -48 28 -48
14z"/>
<path d="M2651 364 c0 -11 3 -14 6 -6 3 7 2 16 -1 19 -3 4 -6 -2 -5 -13z"/>
<path d="M2610 325 c8 -9 7 -15 -2 -19 -7 -3 -2 -3 12 1 14 3 30 6 36 6 6 0
11 5 11 11 0 6 -15 12 -34 12 -26 1 -31 -1 -23 -11z"/>
</g>
</svg>
